<?xml version="1.0" encoding="UTF-8" standalone="no"?>
<!-- Created with Inkscape (http://www.inkscape.org/) -->

<svg
   version="1.1"
   id="svg51366"
   width="1300"
   height="1300"
   viewBox="0 0 1300 1300"
   sodipodi:docname="app-icon-4.svg"
   inkscape:version="1.2.2 (b0a8486541, 2022-12-01)"
   xml:space="preserve"
   xmlns:inkscape="http://www.inkscape.org/namespaces/inkscape"
   xmlns:sodipodi="http://sodipodi.sourceforge.net/DTD/sodipodi-0.dtd"
   xmlns="http://www.w3.org/2000/svg"
   xmlns:svg="http://www.w3.org/2000/svg"><defs
     id="defs51370" /><sodipodi:namedview
     id="namedview51368"
     pagecolor="#b2b2b2"
     bordercolor="#000000"
     borderopacity="0.25"
     inkscape:showpageshadow="2"
     inkscape:pageopacity="0"
     inkscape:pagecheckerboard="0"
     inkscape:deskcolor="#d1d1d1"
     showgrid="false"
     inkscape:zoom="0.71319166"
     inkscape:cx="857.41328"
     inkscape:cy="696.86738"
     inkscape:window-width="2560"
     inkscape:window-height="1368"
     inkscape:window-x="0"
     inkscape:window-y="0"
     inkscape:window-maximized="1"
     inkscape:current-layer="g51372"
     showguides="false" /><g
     inkscape:groupmode="layer"
     inkscape:label="Image"
     id="g51372"><rect
       style="fill:#000000;fill-opacity:0;stroke-width:18.8976;stroke-linecap:round;stroke-linejoin:bevel"
       id="rect46032"
       width="835.6095"
       height="835.6095"
       x="1194.3224"
       y="236.56422" /><path
       style="fill:#ffffff;stroke-width:0.999999"
       d="m 753.91537,1077.1078 c 0,-0.062 -33.77361,-108.61845 -75.05251,-241.23764 -41.27887,-132.61917 -75.11023,-241.35315 -75.18077,-241.63108 -0.11852,-0.46683 0.71091,-0.76638 10.89877,-3.93606 6.06485,-1.8869 17.29929,-5.38436 24.96538,-7.7721 94.14367,-29.32273 151.34499,-47.08947 151.40856,-47.02754 0.0428,0.0417 -20.28426,35.00489 -45.17133,77.69597 -31.21561,53.54695 -45.42857,78.14899 -45.82755,79.32538 -0.49663,1.46443 -1.36716,9.28685 -6.16304,55.38005 -3.07159,29.52113 -5.58082,53.95478 -5.57607,54.29702 0.008,0.55604 1.21809,1.32397 11.37701,7.21807 6.25262,3.62771 11.50033,6.58229 11.66159,6.56576 0.33034,-0.0339 86.10787,-61.05739 88.15548,-62.7152 0.72375,-0.58599 1.73179,-1.57076 2.2401,-2.18837 0.50827,-0.61765 35.08556,-59.75789 76.83838,-131.42279 41.75283,-71.66487 75.97023,-130.30432 76.03868,-130.30985 0.16397,-0.0132 149.19475,478.84777 149.06565,478.97284 -0.055,0.053 -11.804,3.73849 -26.1095,8.18995 -227.58141,70.81689 -323.00201,100.51259 -323.2577,100.60049 -0.17112,0.059 -0.31113,0.057 -0.31113,0 z m -524.12036,-95.38752 0.0633,-27.56558 100.80413,-0.0564 c 55.44228,-0.031 157.85572,0.025 227.58543,0.12445 l 126.78128,0.18088 8.06142,25.88551 c 4.43379,14.23702 8.27383,26.58546 8.53341,27.44106 l 0.47199,1.5557 H 465.91383 229.7317 Z M 291.70975,576.57477 V 228.48937 H 519.07907 746.4484 v 80.26996 80.26996 H 625.48344 504.51848 V 656.84473 924.66016 H 398.11411 291.70975 Z m 242.17882,94.955 V 418.39939 h 162.6763 c 98.48449,0 162.64356,0.09 162.59333,0.22816 -0.0456,0.12547 -10.43915,17.99292 -23.09671,39.70543 l -23.01376,39.47729 -1.12946,0.33957 c -5.22845,1.5719 -244.6192,76.14785 -244.83393,76.27165 -0.19048,0.10981 17.2341,56.42839 54.03249,174.64035 29.87252,95.96305 54.39558,174.73028 54.49571,175.03829 l 0.18207,0.56003 h -70.95302 -70.95302 z m 186.7873,101.23971 c 0.0673,-0.30801 1.76046,-16.38704 3.76246,-35.73118 l 3.64002,-35.17116 119.84845,-205.63872 c 65.91665,-113.1013 119.91996,-205.70704 120.00735,-205.79055 0.18725,-0.17893 51.05145,29.42923 51.05585,29.71967 0,0.10877 -53.94128,92.74914 -119.87309,205.86749 l -119.87603,205.66973 -15.8362,11.27871 c -8.70993,6.20329 -21.86049,15.5711 -29.22349,20.81737 -7.36299,5.24627 -13.44138,9.53866 -13.50751,9.53866 -0.0662,0 -0.0652,-0.25201 0.002,-0.56002 z"
       id="path61337" /></g></svg>
